<svg xmlns="http://www.w3.org/2000/svg" xmlns:xlink="http://www.w3.org/1999/xlink" width="26" height="24" viewBox="0 0 26 24"><defs><path id="mllra" d="M739 1559.978c0-.538.433-.979.961-.979h3.479c.432 0 .817.294.93.718l3.926 14.445h10.707l3.558-8.315h-11.86a.973.973 0 0 1-.962-.978c0-.538.432-.978.961-.978h13.336a.95.95 0 0 1 .801.44c.177.277.209.62.08.93l-4.391 10.27a.963.963 0 0 1-.882.588h-12.07a.964.964 0 0 1-.929-.717l-3.927-14.446h-2.757a.973.973 0 0 1-.961-.979zm5.481 20.804c0-1.223.978-2.217 2.18-2.217 1.202 0 2.18.995 2.18 2.217 0 1.223-.978 2.217-2.18 2.217-1.202 0-2.18-.994-2.18-2.217zm13.64.147c-.08-1.207.818-2.283 2.02-2.364 1.202-.082 2.244.847 2.324 2.054.032.603-.144 1.174-.529 1.614a2.162 2.162 0 0 1-1.49.766h-.16c-1.139 0-2.084-.913-2.165-2.07z"/></defs><g><g transform="translate(-739 -1559)"><use fill="#ef5b70" xlink:href="#mllra"/></g></g></svg>